<?xml version="1.0" encoding="utf-8"?>
<!-- Generator: Adobe Illustrator 22.1.0, SVG Export Plug-In . SVG Version: 6.00 Build 0)  -->
<svg version="1.1" id="Layer_1" xmlns="http://www.w3.org/2000/svg" xmlns:xlink="http://www.w3.org/1999/xlink" x="0px" y="0px"
	 viewBox="0 0 299 480" style="enable-background:new 0 0 299 480;" xml:space="preserve">
<style type="text/css">
	.st0{fill:#181818;}
</style>
<g>
	<g>
		<path class="st0" d="M60.8,13.5c50.2-0.3,100.4,0,150.7-0.1c10.6,0.4,21.3-0.8,31.8,0.9c14.4,2.7,26.7,14.3,30.4,28.5
			c2.1,6.9,1.3,14.1,1.5,21.2c0,119.6,0,239.3,0,358.9c0.1,17.4-12.6,33.8-29.4,38.1c-7.4,2.2-15.2,1.1-22.9,1.4
			c-54.4-0.1-108.8,0-163.2-0.1c-13.4-0.5-26-8.4-32.6-20c-4.4-7.3-5.6-16-5.4-24.4c0-121.3,0-242.6,0-364c0-9.1,2.7-18.3,8.6-25.4
			C37.4,19.3,49,13.5,60.8,13.5z M48.6,77.2c-0.1,98.4-0.2,196.7,0,295.1c66.5,0.2,132.9,0,199.4,0.1c0.2-98.4,0-196.7,0.1-295.1
			C181.6,77,115.1,77.3,48.6,77.2z M142.9,393.1c-5.7,1.5-11.1,4.9-14.3,10c-4.3,6.1-5,14.3-2.6,21.3c2.9,7.8,10,13.9,18.3,15.2
			c12.1,2.6,25.2-6.5,27.3-18.7c1.7-8.3-1.4-17.6-8.1-22.9C158.1,393,150,391.8,142.9,393.1z"/>
	</g>
</g>
</svg>
