<?xml version="1.0" encoding="utf-8"?>
<!-- Generator: Adobe Illustrator 22.1.0, SVG Export Plug-In . SVG Version: 6.00 Build 0)  -->
<svg version="1.1" id="Calque_2" xmlns="http://www.w3.org/2000/svg" xmlns:xlink="http://www.w3.org/1999/xlink" x="0px" y="0px"
	 viewBox="0 0 500 500" style="enable-background:new 0 0 500 500;" xml:space="preserve">
<style type="text/css">
	.st0{fill:#446670;}
	.st1{opacity:0.42;fill:#ABD5E7;}
	.st2{fill:#0094D1;}
	.st3{fill:#B9C1C4;}
</style>
<g id="Слой_4">
	<g>
		<g>
			<g>
				<path class="st0" d="M250,355.5c-64.2,0-116.4-52.2-116.4-116.4c0-64.2,52.2-116.5,116.4-116.5c64.2,0,116.4,52.2,116.4,116.5
					C366.4,303.3,314.2,355.5,250,355.5z M250,132.3c-58.9,0-106.7,47.9-106.7,106.7c0,58.9,47.9,106.7,106.7,106.7
					S356.7,297.9,356.7,239C356.7,180.2,308.9,132.3,250,132.3z"/>
				<path class="st0" d="M250,113.4c-5.7,0-9.4-0.7-11-1.2V99.7c1.6-0.5,5.2-1.2,11-1.2s9.4,0.7,11,1.2v12.6
					C259.4,112.8,255.7,113.4,250,113.4z"/>
				<path class="st0" d="M342.1,153c-1.5-0.8-4.5-2.9-8.6-6.9c-4-4-6.2-7.1-6.9-8.6l5.2-5.2c1.5,0.8,4.5,2.9,8.6,6.9
					c4,4,6.2,7.1,6.9,8.6L342.1,153z"/>
				<path class="st0" d="M152.7,147.8c0.8-1.5,2.9-4.5,6.9-8.6c4-4,7.1-6.2,8.6-6.9l5.2,5.2c-0.8,1.5-2.9,4.5-6.9,8.6
					c-4,4-7.1,6.2-8.6,6.9L152.7,147.8z"/>
			</g>
		</g>
	</g>
</g>
<path class="st1" d="M244.4,243.9c-1,2.8,0.5,5.8,3.3,6.7c2.8,0.9,5.9-0.5,6.9-3.3l28.8-79.3l-38.7,75.3
	C244.6,243.5,244.5,243.7,244.4,243.9z"/>
<g id="Слой_3">
	<path class="st2" d="M246,242.2c-1.7,2.4-1.2,5.7,1.2,7.4c2.4,1.7,5.7,1.2,7.4-1.2l48.7-67.9l-56.8,61.3
		C246.3,241.9,246.1,242,246,242.2z"/>
</g>
<g id="Слой_2">
	<g>
		<path class="st3" d="M342.7,238.1c-1.1-49-40.7-88.7-89.7-89.7v-3.7c51,1.1,92.4,42.4,93.4,93.4H342.7z"/>
	</g>
</g>
</svg>
